<svg xmlns="http://www.w3.org/2000/svg" width="257" height="80"  fill="#fff" xmlns:v="https://vecta.io/nano"><path d="M38.681 72.21l.207-.246 8.421-10.38H36.104c-14.048 0-25.478-11.429-25.478-25.478s11.429-25.479 25.478-25.479h13.088L57.899 0H36.104C16.196 0 0 16.197 0 36.105S16.196 72.21 36.104 72.21h2.576z"/><path d="M0 36.105C0 45.29 3.453 53.68 9.122 60.059l6.823-8.401c-3.33-4.306-5.319-9.7-5.319-15.553 0-14.049 11.43-25.478 25.478-25.478H49.27L57.9 0H36.104C16.196 0 0 16.196 0 36.105m47.307 25.478l10.626-13.099V30.395H35.359l-8.608 10.626h20.556zm195.916-10.31c-3.959 0-6.725 2.647-6.725 6.437v.096c0 3.758 2.828 6.485 6.725 6.485 3.97 0 6.964-2.788 6.964-6.485v-.096c0-3.669-2.994-6.437-6.964-6.437m13.573-1.966v17.212c0 4.319-1.124 7.634-3.34 9.851-2.345 2.344-5.949 3.532-10.712 3.532-3.305 0-6.421-.639-9.265-1.901-.713-.316-1.252-.898-1.52-1.636s-.22-1.56.126-2.261c.695-1.404 2.359-1.985 3.779-1.328 2.14.991 4.343 1.472 6.735 1.472 4.932 0 7.539-2.507 7.539-7.251v-.669c-2.368 2.591-5.079 3.806-8.448 3.806-7.76 0-11.947-6.328-11.947-12.281v-.096c0-8.008 6.156-12.329 11.947-12.329 4.168 0 6.747 1.849 8.412 3.584a3.36 3.36 0 0 1 3.341-3.057c1.848 0 3.352 1.504 3.352 3.352m-38.831-3.305c-3.001 0-5.454 1.16-7.462 3.538a3.38 3.38 0 0 0-3.358-3.012 3.38 3.38 0 0 0-3.376 3.376v19.438a3.38 3.38 0 0 0 3.376 3.377 3.38 3.38 0 0 0 3.377-3.377V57.997c0-3.534 2.056-5.816 5.24-5.816 3.195 0 4.955 2.031 4.955 5.719v11.466c0 1.849 1.504 3.353 3.352 3.353a3.36 3.36 0 0 0 3.353-3.353V56.13c0-6.247-3.624-10.128-9.457-10.128m-20.093-7.787h-.696a3.12 3.12 0 0 0-3.116 3.115 3.12 3.12 0 0 0 3.116 3.116h.696a3.12 3.12 0 0 0 3.116-3.116 3.12 3.12 0 0 0-3.116-3.115m-.348 8.314a3.38 3.38 0 0 0-3.378 3.376v19.438a3.38 3.38 0 0 0 3.378 3.377 3.38 3.38 0 0 0 3.377-3.377V49.905a3.38 3.38 0 0 0-3.377-3.376m-15.744-.526c-3.002 0-5.455 1.16-7.464 3.538a3.38 3.38 0 0 0-3.357-3.012 3.38 3.38 0 0 0-3.377 3.376v19.438a3.38 3.38 0 0 0 3.377 3.377 3.38 3.38 0 0 0 3.377-3.377V57.997c0-3.534 2.057-5.816 5.241-5.816 3.194 0 4.954 2.031 4.954 5.719v11.466a3.36 3.36 0 0 0 3.353 3.353c1.849 0 3.352-1.504 3.352-3.353V56.13c0-6.247-3.623-10.128-9.456-10.128m-46.364 14.319c-3.483 0-5.481 1.369-5.481 3.757v.095c0 2.049 1.756 3.372 4.475 3.372 3.646 0 6.293-2.084 6.293-4.953v-1.406c-1.165-.418-2.959-.866-5.288-.866m8.849-11.739c1.893 1.846 2.858 4.582 2.858 8.122v12.16c0 1.809-1.472 3.281-3.281 3.281-1.554 0-2.859-1.086-3.196-2.539-2.042 2.01-4.739 3.065-7.863 3.065-4.555 0-9.457-2.584-9.457-8.259v-.095c0-5.384 4.09-8.596 10.942-8.596 2.765 0 4.756.426 6.341.893v-.005c0-4.173-3.162-5.049-5.815-5.049-1.721 0-3.278.237-4.902.747-1.485.468-3.055-.332-3.572-1.815a2.89 2.89 0 0 1 .132-2.224c.337-.692.921-1.21 1.645-1.458 2.389-.822 4.691-1.189 7.464-1.189 3.806 0 6.818 1.024 8.705 2.962m-40.788 8.239h11.919c-.442-2.863-2.189-5.741-5.895-5.741-3.052 0-5.374 2.234-6.024 5.741m18.64 2.659a2.1 2.1 0 0 1-2.112 2.085h-16.469c.721 3.409 3.258 5.502 6.731 5.502 1.986 0 3.578-.526 5.161-1.706 1.049-.784 2.529-.716 3.518.162a2.8 2.8 0 0 1 .944 2.168 2.81 2.81 0 0 1-1.042 2.122c-2.384 1.928-5.303 2.905-8.675 2.905-7.782 0-13.431-5.708-13.431-13.574v-.545a13.43 13.43 0 0 1 3.932-9.462c2.424-2.412 5.602-3.731 8.964-3.711 8.622.048 12.482 7.093 12.482 14.053M94.213 65.87H81.045c-.725 0-1.314-.589-1.314-1.314V40.858a3.14 3.14 0 0 0-3.138-3.137h-.527a3.14 3.14 0 0 0-3.137 3.137v29.257c0 1.12.911 2.031 2.03 2.031h19.252a3.14 3.14 0 0 0 3.137-3.137 3.14 3.14 0 0 0-3.137-3.137m71.41-16.248c0 1.577-1.013 2.938-2.52 3.386-2.141.636-4.856 1.898-5.632 4.294-.534 1.369-.801 2.968-.801 4.778v7.261a3.38 3.38 0 0 1-3.376 3.376 3.38 3.38 0 0 1-3.377-3.376V49.349a3.38 3.38 0 0 1 3.377-3.376 3.38 3.38 0 0 1 3.376 3.376v.844c1.013-1.702 2.313-2.964 3.881-3.759a3.42 3.42 0 0 1 3.364.149 3.55 3.55 0 0 1 1.708 3.042M187.948 29.3a7.66 7.66 0 0 1-.855.047c-1.836 0-2.655-.834-2.655-2.704V14.701h3.852a2.95 2.95 0 0 0 2.946-2.946 2.95 2.95 0 0 0-2.946-2.946h-3.852v-3.59a3.36 3.36 0 0 0-3.354-3.353 3.36 3.36 0 0 0-3.353 3.353v3.589h-.262a2.95 2.95 0 0 0-2.946 2.946 2.95 2.95 0 0 0 2.946 2.946h.262v12.852c0 5.227 2.602 7.877 7.734 7.877 1.384 0 2.598-.185 3.711-.566a2.89 2.89 0 0 0 1.965-2.724c0-.811-.346-1.586-.951-2.127a2.87 2.87 0 0 0-2.243-.714m-25.915-6.126c-3.483 0-5.481 1.37-5.481 3.756v.096c0 2.049 1.756 3.374 4.475 3.374 3.646 0 6.294-2.084 6.294-4.954v-1.406c-1.166-.418-2.961-.866-5.288-.866m8.849-11.738c1.893 1.846 2.858 4.581 2.858 8.122v12.016c0 1.659-1.17 3.164-2.814 3.392-1.754.244-3.293-.91-3.664-2.507-2.044 2.01-4.739 3.066-7.863 3.066-4.555 0-9.457-2.585-9.457-8.259v-.096c0-5.382 4.09-8.595 10.941-8.595 2.767 0 4.758.426 6.341.893v-.006c0-4.172-3.162-5.048-5.815-5.048a15.91 15.91 0 0 0-4.902.748c-1.486.467-3.058-.332-3.573-1.816-.301-.868-.18-1.814.348-2.597.368-.546.949-.924 1.574-1.135 2.338-.788 4.602-1.139 7.319-1.139 3.808 0 6.818 1.025 8.706 2.963m-34.761 2.498c-3.051 0-5.373 2.235-6.024 5.742h11.92c-.444-2.864-2.19-5.742-5.896-5.742m12.616 8.401c-.001 1.156-.949 2.084-2.111 2.084h-16.47c.721 3.409 3.258 5.502 6.731 5.502 1.986 0 3.578-.526 5.16-1.706 1.051-.782 2.531-.715 3.518.162a2.81 2.81 0 0 1 .946 2.168c-.021.829-.4 1.602-1.044 2.123-2.384 1.928-5.302 2.905-8.675 2.905-7.782 0-13.431-5.709-13.431-13.574v-.544a13.44 13.44 0 0 1 3.931-9.464c2.408-2.394 5.564-3.709 8.893-3.709h.071c8.622.047 12.481 7.092 12.481 14.053m-26.9-12.899a3.42 3.42 0 0 0-3.364-.149c-1.568.796-2.868 2.056-3.881 3.759v-.844a3.38 3.38 0 0 0-3.376-3.377 3.38 3.38 0 0 0-3.377 3.377v19.995a3.38 3.38 0 0 0 3.377 3.376 3.38 3.38 0 0 0 3.376-3.376v-7.261c0-1.81.266-3.409.8-4.779.776-2.395 3.491-3.658 5.632-4.294 1.508-.448 2.52-1.809 2.52-3.386a3.55 3.55 0 0 0-1.708-3.042M105.2 18.764v9.435c0 1.264-.593 2.45-1.585 3.171-2.64 1.918-7.013 4.204-12.851 4.204-10.501 0-17.835-7.275-17.835-17.691v-.096C72.929 7.813 80.721 0 90.668 0c4.314 0 7.592.855 10.629 2.771a3.2 3.2 0 0 1 1.455 2.209c.141.9-.115 1.816-.699 2.514l-.251.299c-1.024 1.221-2.828 1.471-4.196.584-2.141-1.388-4.354-2.006-7.178-2.006-5.838 0-10.411 4.972-10.411 11.321v.095c0 6.778 4.498 11.512 10.938 11.512 2.048 0 4.067-.439 5.838-1.27 1.091-.512 1.795-1.668 1.795-2.945V21.45h-5.527a3.042 3.042 0 1 1 0-6.084h8.741a3.4 3.4 0 0 1 3.398 3.397"/></svg>